<?xml version="1.0" encoding="utf-8"?>
<!-- Generator: Adobe Illustrator 28.1.0, SVG Export Plug-In . SVG Version: 6.00 Build 0)  -->
<svg version="1.1" id="Layer_1" xmlns="http://www.w3.org/2000/svg" xmlns:xlink="http://www.w3.org/1999/xlink" x="0px" y="0px"
	 viewBox="0 0 282.92 79.44" style="enable-background:new 0 0 282.92 79.44;" xml:space="preserve">
<style type="text/css">
	.st0{fill:#4E00A6;}
	.st1{fill:#45C4AF;}
	.st2{fill:#3FC4FF;}
	.st3{fill:#FF4DA5;}
	.st4{fill:#FF8840;}
</style>
<g>
	<g>
		<g>
			<path class="st0" d="M101.74,18.76c0.51-0.48,1.13-0.73,1.87-0.73c0.74,0,1.35,0.24,1.83,0.73c0.48,0.48,0.73,1.09,0.73,1.83
				v36.76c0,0.69-0.24,1.29-0.73,1.8c-0.48,0.51-1.09,0.76-1.83,0.76c-0.74,0-1.36-0.25-1.87-0.76c-0.51-0.51-0.76-1.1-0.76-1.8
				V20.59C100.98,19.86,101.23,19.25,101.74,18.76z"/>
		</g>
		<g>
			<path class="st0" d="M125.05,55.42c3.32,0,6.43-1.8,9.33-5.39v-17c0-0.69,0.24-1.29,0.73-1.8c0.48-0.51,1.09-0.76,1.83-0.76
				c0.69,0,1.29,0.24,1.8,0.73c0.51,0.48,0.76,1.09,0.76,1.83v24.25c0,0.74-0.24,1.36-0.73,1.87c-0.48,0.51-1.09,0.76-1.83,0.76
				c-0.69,0-1.29-0.25-1.8-0.76c-0.51-0.51-0.76-1.13-0.76-1.87V55c-1.52,1.57-2.83,2.67-3.94,3.32c-2.12,1.24-4.16,1.87-6.11,1.87
				c-1.96,0-3.57-0.3-4.84-0.9c-1.27-0.6-2.31-1.38-3.14-2.35c-1.75-2.07-2.63-4.67-2.63-7.81v-16.1c0-0.69,0.24-1.29,0.73-1.8
				c0.48-0.51,1.09-0.76,1.83-0.76c0.69,0,1.29,0.24,1.8,0.73c0.51,0.48,0.76,1.09,0.76,1.83v15.48c0,2.12,0.48,3.8,1.45,5.04
				C121.25,54.79,122.84,55.42,125.05,55.42z"/>
		</g>
		<g>
			<path class="st0" d="M152.14,35.45c2.3-3.45,5.5-5.2,9.6-5.25c2.03,0,3.89,0.6,5.6,1.8c1.38,0.97,2.42,2.3,3.11,4.01
				c1.06-1.66,2.1-2.81,3.11-3.45c2.12-1.57,4.54-2.35,7.25-2.35c3.04,0,5.43,1.17,7.19,3.52c1.52,1.98,2.28,4.42,2.28,7.32v16.31
				c0,0.69-0.24,1.29-0.73,1.8c-0.48,0.51-1.1,0.76-1.83,0.76c-0.69,0-1.29-0.25-1.8-0.76c-0.51-0.51-0.76-1.1-0.76-1.8V42.08
				c0-2.39-0.43-4.18-1.28-5.35c-0.85-1.17-2.34-1.76-4.46-1.76c-3.32,0-6.06,1.82-8.22,5.46v16.93c0,0.69-0.24,1.29-0.73,1.8
				c-0.48,0.51-1.09,0.76-1.83,0.76c-0.69,0-1.29-0.25-1.8-0.76c-0.51-0.51-0.76-1.1-0.76-1.8V42.08c0-2.39-0.43-4.18-1.28-5.35
				c-0.85-1.17-2.34-1.76-4.46-1.76c-3.32,0-6.06,1.82-8.22,5.46v16.93c0,0.69-0.25,1.29-0.76,1.8c-0.51,0.51-1.11,0.76-1.8,0.76
				s-1.29-0.25-1.8-0.76c-0.51-0.51-0.76-1.1-0.76-1.8V33.1c0-0.69,0.24-1.3,0.73-1.83c0.48-0.53,1.09-0.79,1.83-0.79
				c0.69,0,1.29,0.25,1.8,0.76c0.51,0.51,0.76,1.13,0.76,1.87V35.45z"/>
		</g>
		<g>
			<path class="st0" d="M203.25,21.98c0,0.83-0.28,1.52-0.83,2.07c-0.55,0.55-1.24,0.83-2.07,0.83h-0.34
				c-0.83,0-1.51-0.28-2.04-0.83c-0.53-0.55-0.79-1.24-0.79-2.07v-0.21c0-0.83,0.28-1.52,0.83-2.07c0.55-0.55,1.22-0.83,2-0.83h0.34
				c0.83,0,1.52,0.28,2.07,0.83c0.55,0.55,0.83,1.24,0.83,2.07V21.98z M198.35,31.2c0.51-0.48,1.13-0.73,1.87-0.73
				c0.74,0,1.34,0.24,1.8,0.73c0.46,0.48,0.69,1.12,0.69,1.9v24.25c0,0.69-0.23,1.29-0.69,1.8c-0.46,0.51-1.06,0.76-1.8,0.76
				c-0.74,0-1.36-0.25-1.87-0.76c-0.51-0.51-0.76-1.1-0.76-1.8V33.1C197.59,32.32,197.84,31.68,198.35,31.2z"/>
		</g>
		<g>
			<path class="st0" d="M224.82,34.96c-3.32,0-6.43,1.82-9.33,5.46v16.93c0,0.69-0.25,1.29-0.76,1.8c-0.51,0.51-1.1,0.76-1.8,0.76
				c-0.69,0-1.29-0.25-1.8-0.76s-0.76-1.1-0.76-1.8V33.1c0-0.74,0.24-1.36,0.73-1.87c0.48-0.51,1.09-0.76,1.83-0.76
				c0.69,0,1.29,0.24,1.8,0.73c0.51,0.48,0.76,1.12,0.76,1.9v2.35c1.52-1.57,2.83-2.69,3.94-3.39c2.12-1.24,4.16-1.87,6.11-1.87
				c1.96,0,3.56,0.29,4.8,0.86c1.24,0.58,2.3,1.39,3.18,2.45c1.75,2.07,2.63,4.65,2.63,7.74v16.1c0,0.69-0.25,1.29-0.76,1.8
				c-0.51,0.51-1.1,0.76-1.8,0.76c-0.69,0-1.29-0.25-1.8-0.76c-0.51-0.51-0.76-1.1-0.76-1.8V41.8c0-2.12-0.48-3.79-1.45-5.01
				C228.62,35.58,227.03,34.96,224.82,34.96z"/>
		</g>
		<g>
			<path class="st0" d="M256.26,30.2c4.38,0,7.9,1.38,10.57,4.15c2.67,2.81,3.96,6.43,3.87,10.85c0,4.47-1.29,8.08-3.87,10.85
				c-2.67,2.76-6.2,4.15-10.57,4.15c-4.42,0-7.92-1.38-10.5-4.15c-2.67-2.76-4.01-6.38-4.01-10.85c0-4.51,1.33-8.13,4.01-10.85
				C248.34,31.58,251.84,30.2,256.26,30.2z M249.94,53.17c0.9,0.81,1.91,1.39,3.04,1.76c1.13,0.37,2.22,0.55,3.28,0.55
				c1.06,0,2.14-0.18,3.25-0.55c1.11-0.37,2.12-0.97,3.04-1.8c2.03-1.84,3.04-4.51,3.04-8.01c0-3.41-1.01-6.06-3.04-7.95
				c-1.7-1.57-3.8-2.33-6.29-2.28c-4.1,0-6.93,1.84-8.5,5.53c-0.55,1.34-0.83,2.93-0.83,4.77c0,1.84,0.28,3.43,0.83,4.77
				C248.32,51.29,249.05,52.37,249.94,53.17z"/>
		</g>
	</g>
	<g>
		<path class="st0" d="M24.33,25.76l26.69,40.82c3.28-1.32,5.92-3.17,7.61-4.67L31.59,20.64C29.51,21.6,27.07,23.14,24.33,25.76z"/>
	</g>
	<g>
		<path class="st1" d="M17.07,43.29c0,3.22,0.63,6.29,1.74,9.12h12.9L19.18,33.28C17.83,36.34,17.07,39.73,17.07,43.29z"/>
	</g>
	<g>
		<path class="st2" d="M56.47,30.32l10.35,15.8c0.11-0.97,0.19-1.95,0.19-2.96c0-6.8-2.72-12.95-7.13-17.45L56.47,30.32z"/>
	</g>
	<g>
		<path class="st3" d="M61.69,58.65c1.57-2.01,2.83-4.26,3.74-6.7L38.91,11.64c-2.06,0.35-5.03,1.65-6.43,2.41"/>
	</g>
	<g>
		<path class="st4" d="M35.66,58.44l-2.21-3.37H20.03c2.37,4.42,6.03,8.05,10.48,10.37L35.66,58.44z"/>
	</g>
</g>
</svg>
